<svg id="Layer_1" viewBox="0 0 512 512" xmlns="http://www.w3.org/2000/svg" data-name="Layer 1"><path d="m108.754 207.244c54.482 0 98.646-44.135 98.646-98.617s-44.164-98.618-98.646-98.618-98.617 44.136-98.617 98.618 44.164 98.617 98.617 98.617zm0-183.968c47.14 0 85.351 38.211 85.351 85.351s-38.211 85.351-85.351 85.351-85.323-38.211-85.323-85.351 38.211-85.351 85.323-85.351zm0 158.711c40.535 0 73.361-32.854 73.361-73.36s-32.825-73.361-73.361-73.361-73.332 32.854-73.332 73.361 32.825 73.36 73.332 73.36zm-41.953-42.208c-2.863 1.645-6.52.681-8.192-2.183-1.644-2.891-.709-6.52 2.268-8.22 2.863-1.672 6.52-.68 8.192 2.154 1.644 2.891.68 6.52-2.268 8.249zm21.175 16.81c-1.644 2.863-5.301 3.855-8.164 2.183-2.891-1.644-3.855-5.301-2.154-8.249 1.672-2.863 5.329-3.855 8.192-2.183s3.855 5.301 2.126 8.249zm49.72 2.183c-2.863 1.644-6.491.681-8.192-2.268-1.644-2.863-.652-6.52 2.211-8.164s6.491-.681 8.192 2.268c1.644 2.863.652 6.52-2.211 8.164zm22.989-56.154c3.317 0 6.009 2.693 6.009 6.01s-2.665 6.009-6.094 6.009c-3.317 0-6.009-2.693-6.009-6.009s2.665-6.01 6.094-6.01zm-9.95-25.143c2.863-1.644 6.52-.68 8.192 2.183 1.644 2.863.709 6.52-2.268 8.22-2.863 1.673-6.52.681-8.192-2.183-1.644-2.863-.68-6.491 2.268-8.22zm-2.268 54.057c1.672-2.863 5.301-3.827 8.277-2.126 2.863 1.672 3.827 5.329 2.183 8.192-1.672 2.863-5.301 3.855-8.277 2.126-2.863-1.644-3.827-5.329-2.183-8.192zm-18.907-70.866c1.644-2.834 5.301-3.827 8.135-2.183 2.891 1.644 3.883 5.272 2.183 8.22-1.644 2.863-5.301 3.855-8.164 2.211-2.891-1.644-3.855-5.272-2.154-8.249zm-20.806-9.978c3.345 0 6.009 2.665 6.009 6.095 0 3.316-2.693 6.009-6.009 6.009s-5.981-2.665-5.981-6.094c0-3.317 2.693-6.01 5.981-6.01zm-5.981 26.164c0-3.317 2.693-6.01 5.981-6.01 3.317 0 6.009 2.693 6.009 6.01v28.318l19.871 11.48c2.863 1.672 3.855 5.329 2.183 8.192-1.644 2.863-5.301 3.827-8.164 2.183l-22.507-13.011c-2.013-.964-3.373-3.005-3.373-5.386zm5.981 77.612c3.345 0 6.009 2.665 6.009 6.095 0 3.316-2.693 6.009-6.009 6.009s-5.981-2.665-5.981-6.094c0-3.317 2.693-6.01 5.981-6.01zm-28.942-95.981c2.863-1.672 6.491-.708 8.22 2.239 1.644 2.863.68 6.548-2.183 8.192-2.863 1.672-6.52.708-8.22-2.268-1.672-2.863-.68-6.52 2.183-8.164zm-21.203 21.175c1.672-2.863 5.301-3.855 8.277-2.126 2.863 1.644 3.827 5.329 2.183 8.164-1.672 2.892-5.301 3.855-8.277 2.154-2.863-1.672-3.827-5.329-2.183-8.192zm-7.767 28.97c0-3.317 2.665-6.01 6.094-6.01 3.317 0 5.981 2.693 5.981 6.01s-2.636 6.009-6.066 6.009c-3.317 0-6.009-2.693-6.009-6.009zm451.021 31.946v315.354h-68.23v-315.355h68.23zm-165.175 51.676h68.202v263.679h-68.202v-263.68zm-96.973 51.675h68.202v212.003h-68.202zm-96.973 51.676h68.202v160.328h-33.902c-.765-1.446-1.758-2.835-2.976-4.082 1.02-2.183 1.928-4.394 2.75-6.633 9.836-.17 17.773-8.22 17.773-18.085v-22.706c0-9.864-7.937-17.915-17.773-18.085-.822-2.268-1.729-4.45-2.75-6.633 6.831-7.059 6.746-18.369-.227-25.37l-16.044-16.044c-4.11-4.082-9.695-5.811-15.052-5.159v-37.531zm287.546-235.106c-.907-3.175.907-6.492 4.082-7.398l33.392-9.667c4.479-1.304 8.617 2.835 7.427 7.257l-8.816 33.619c-.85 3.203-4.11 5.102-7.313 4.252-3.203-.822-5.102-4.11-4.252-7.313l2.891-11.083c-68.145 65.764-222.52 153.808-304.781 177.704-3.175.907-6.491-.907-7.398-4.082-.935-3.175.907-6.491 4.054-7.398 80.476-23.357 234.057-110.891 300.472-175.379l-12.359 3.571c-3.175.907-6.491-.907-7.398-4.082zm-253.814 372.728c3.373 0 6.123-2.75 6.123-6.095v-22.706c0-3.345-2.75-6.094-6.123-6.094h-8.532c-1.814-7.455-4.762-14.457-8.646-20.806l6.066-6.066c2.381-2.381 2.381-6.236 0-8.617l-16.044-16.044c-2.381-2.381-6.265-2.381-8.646 0l-6.038 6.038c-6.378-3.883-13.38-6.832-20.806-8.646v-8.532c0-3.345-2.75-6.095-6.123-6.095h-22.677c-3.373 0-6.123 2.75-6.123 6.095v8.561c-7.427 1.786-14.428 4.734-20.806 8.617l-6.038-6.038c-2.381-2.381-6.265-2.381-8.646 0l-16.044 16.044c-2.381 2.381-2.381 6.236 0 8.617l6.038 6.066c-3.883 6.35-6.803 13.351-8.617 20.806h-8.532c-3.373 0-6.123 2.75-6.123 6.094v22.706c0 3.345 2.75 6.095 6.123 6.095h8.532c1.814 7.455 4.734 14.457 8.617 20.806l-6.038 6.066c-2.381 2.353-2.381 6.236 0 8.617l16.044 16.044c2.381 2.381 6.265 2.381 8.646 0l6.038-6.038c6.378 3.883 13.38 6.803 20.806 8.617v8.561c0 3.345 2.75 6.095 6.123 6.095h22.677c3.373 0 6.123-2.75 6.123-6.095v-8.561c7.427-1.786 14.428-4.734 20.806-8.617l6.038 6.038c2.381 2.381 6.265 2.381 8.646 0l16.044-16.044c2.381-2.381 2.381-6.265 0-8.617l-6.066-6.066c3.883-6.35 6.831-13.351 8.646-20.806zm-80.107 28.999c-25.654 0-46.46-20.807-46.46-46.46s20.806-46.432 46.46-46.432 46.46 20.778 46.46 46.432-20.806 46.46-46.46 46.46zm34.441-46.46c0 19.049-15.42 34.469-34.441 34.469s-34.469-15.42-34.469-34.469 15.42-34.441 34.469-34.441 34.441 15.42 34.441 34.441z" fill-rule="evenodd"/></svg>