<svg clip-rule="evenodd" fill-rule="evenodd" height="512" image-rendering="optimizeQuality" shape-rendering="geometricPrecision" text-rendering="geometricPrecision" viewBox="0 0 6.82666 6.82666" width="512" xmlns="http://www.w3.org/2000/svg"><g id="Layer_x0020_1"><g id="_382091936"><path id="_382093280" d="m3.70752 5.74998-.294193-.373138-.294193.373138h.118728c.0368189 0 .0666614.0298465.0666614.0666654v.514713c.0725039.00267323.145114.00266535.217618 0v-.514724c0-.036811.0298425-.0666535.0666614-.0666535h.118717z"/><path id="_382093184" d="m6.33133 3.30453-1.04804-.00002362c-.036815 0-.0666811-.0298228-.0666811-.0666378v-.11876l-.373114.294205.373114.294205v-.118744c0-.036811.0298622-.0666417.0666811-.0666417l1.04804-.00001181c.00267323-.0724882.00267323-.145102 0-.217591z"/><path id="_382092512" d="m3.41333 1.45.294193-.373138h-.118717c-.0368189 0-.0666614-.0298268-.0666614-.0666417v-.514925c-.0725039-.00266535-.145114-.00267323-.217618 0v.514913c0 .036811-.0298425.0666732-.0666614.0666732l-.118728-.00001968.294193.373138z"/><path id="_382092344" d="m2.96635 4.51376-.168476-.441071-.489134.20048c-.0781772.032063-.126811.0818701-.144547.147992l-.149787.558728h1.05622l.199047-.417591-.097685-.116091-.0975866.0922008c-.0344606.0325276-.0911535.0196654-.108047-.0246496z"/><path id="_382092272" d="m3.75227 4.53843-.0975945-.0922126-.0976811.116091.199051.417587h1.05622l-.149799-.558728c-.0177244-.066122-.0663622-.115909-.144551-.147965l-.489114-.200512-.16848.441071c-.0169331.0442992-.0735906.0572126-.108047.0246693z"/><path id="_382092200" d="m3.60833 4.97989-.17206-.36098h-.04587l-.17208.36098z"/><path id="_382092296" d="m3.55759 4.35449-.14426-.1363-.14427.13631.11029.13107h.06795z"/><path id="_382092728" d="m3.31083 4.13159-.311248-.24011-.0876614.106118.143398.375421c.0851969-.0805039.170287-.160902.255512-.241429z"/><path id="_382092368" d="m3.77135 4.37302.14339-.37543-.08767-.10611-.31125.24011z"/><path id="_382092152" d="m3.41333 4.04228.357402-.275713v-.0739331c-.100878.0920236-.223587.143437-.357398.143437-.133819 0-.256528-.0514134-.357409-.143437v.0739331l.357406.275713z"/><path id="_382091384" d="m3.9527 2.1208c-.102902-.246909-.34472-.325996-.739256-.241843-.302339.0749606-.449331.247189-.449409.52648-.00004331.0984843.0190394.220197.0520512.303055.0698819-.0812953.173421-.12437.267736-.163622.105193-.0437559.204543-.0851024.247378-.169098.0302677-.0594134.131681-.0513031.124776.0514646-.00440945.065815-.00868504.129764-.0179764.189346.0585118-.0358189.10402-.0755709.146063-.112303.067622-.0591063.126008-.110106.208043-.112606.0300945-.00111811.0575709.0188307.0660512.0480512.0247992.0853543.0467638.108929.0771811.141551.0175512.0187992.0371063.0398071.0583701.0716535.0699843-.221843.11622-.423425-.0135276-.500465-.0123307-.00733465-.0219724-.0184291-.0274803-.0316654z"/><path id="_382091288" d="m1.98317 3.41331-.37313-.294205v.118744c0 .036811-.0298504.0666772-.0666654.0666772l-1.04805-.00002362c-.00266929.0725-.00267323.145126 0 .217626l1.04805-.00001181c.036815 0 .0666654.0298583.0666654.0666732v.118724l.37313-.294205z"/><path id="_382092008" d="m6.32331 3.1712c-.116921-1.41735-1.25036-2.55086-2.66772-2.66778l.00000394.440142h.189516c.0555 0 .0867126.0643622.0523465.107941l-.43165.547465c-.0265157.0335984-.078189.0336181-.104701.00000394l-.431657-.54748c-.0343622-.0436024-.00316929-.107925.0523583-.107925l.189516-.00000394v-.440146c-1.41736.116913-2.55081 1.25043-2.66772 2.66779l.973236-.00000394v-.18952c0-.0555157.0643504-.0867126.107941-.0523543l.547461.43165c.0336457.0265.0335906.0781929 0 .104713l-.547461.431634c-.0435118.0343701-.107941.00312992-.107941-.0523307v-.189531h-.973236c.116909 1.41734 1.25035 2.55089 2.66772 2.66778v-.439957h-.189516c-.0555236 0-.0867205-.064315-.0523622-.107917l.431665-.547484c.0265472-.0336181.0781654-.0335866.104697.00002756l.43165.547441c.0343661.0435866.00315354.107953-.0523504.107953l-.189512-.00001968v.439949c1.41737-.116921 2.55081-1.25042 2.66772-2.66776l-.973228-.00001575v.18952c0 .0561772-.064874.0863071-.107953.0523583l-.547449-.431654c-.0336024-.0265157-.0336457-.0781929 0-.104693l.547449-.431685c.0435906-.0343543.107949-.00312205.107949.0523819l.00000394.189512h.973228zm-2.25589-1.12118c.212921.147008.111909.461579.0444409.671689-.00670079.0208583-.0132362.0412205-.0191811.0604921.0378268.0150276.0675984.0422835.0859173.08.0502047.103291.00164961.266394-.0752047.353862-.0303307.0345079-.0645551.0566063-.0994094.065063-.023815.0910787-.0576772.173268-.0997756.244776v.249472l.127563.154406.536854.220028c.117059.0479961.194083.129909.222748.236846l.172299.642642c.0113386.0422835-.020626.0839409-.0644016.0839331h-2.97163c-.0437638 0-.0757402-.0416457-.0643858-.0839213l.172299-.642669c.0286654-.106933.105689-.188819.222752-.236803l.53685-.220055.127559-.154425.00000394-.249453c-.0420945-.0715197-.0759606-.153697-.0997756-.244776-.0348701-.00846457-.0690945-.0305276-.0994134-.065063-.0768504-.0874843-.125409-.250543-.0752165-.353862.0140551-.0289252.0348346-.0517402.0608189-.0675945-.0604724-.122106-.0783228-.296087-.0783031-.389217.00011024-.340106.190917-.566996.55178-.656118l.00203937-.00047244c.451839-.0966496.748673.00469685.882776.30122z"/><path id="_382091696" d="m3.97229 3.15175c.00593307-.00014567.0327323-.016311.0590394-.0649606.0378346-.0700236.0425236-.142878.0251654-.170252-.00279134-.00442126-.0101929-.016185-.0443858-.014311-.0291614.00161811-.0565984-.0162244-.0665433-.0444961-.0426969-.115941-.075689-.151315-.107602-.185531-.0287323-.0308189-.0582559-.0624685-.0859567-.131437-.0231142.014126-.0490512.0368031-.0800906.0639134-.0691181.0603937-.163795.143134-.313626.197354-.0553819.0199449-.107815-.0369094-.0832874-.0904528.0162087-.0354173.0262402-.078874.0331299-.12726-.0549173.0345315-.115803.0598858-.172957.0836614-.117291.0487874-.218642.0909803-.25352.188882-.00254724.00758661-.00622047.0141063-.0110433.0202913-.0348465.042315-.0833701.0127756-.100193.0393858-.0173583.0273622-.0126693.100256.0251811.170252.0263071.0486299.0531063.064815.0593701.0649134.0378071-.0126457.0778031.0105079.0860394.0494449.0645079.304693.249957.501598.472461.501598.222488-.00001181.407937-.19689.472449-.501598.00823228-.038937.0486378-.0620315.0863701-.0493976z"/></g></g></svg>