<svg id="Layer_1" viewBox="0 0 512 512" xmlns="http://www.w3.org/2000/svg" data-name="Layer 1"><path d="m230.72 273.823-23.804 66.645-25.972-31.274-40.473 3.804 29.92-63.388c8.844 3.827 18.615 4.633 29.143 2.85 6.544-1.108 12.46 1.341 16.303 6.752 4.31 6.068 9.25 10.987 14.883 14.612zm82.663-21.365c-6.543-1.109-12.458 1.343-16.3 6.753-4.231 5.957-9.069 10.805-14.573 14.411l23.876 66.845 25.971-31.274 40.472 3.804-29.986-63.528c-8.928 3.946-18.808 4.794-29.46 2.988zm-183.923-114.372c0-12.224 5.426-20.682 15.138-27.58 10.445-7.419 15.402-19.385 13.261-32.017-1.988-11.746.153-21.561 8.798-30.205 8.641-8.642 18.462-10.788 30.205-8.797 12.632 2.14 24.598-2.817 32.017-13.262 6.898-9.712 15.356-15.138 27.58-15.138s20.681 5.426 27.58 15.138c7.419 10.445 19.385 15.402 32.017 13.262 11.747-1.988 21.562.153 30.206 8.798 8.642 8.642 10.788 18.462 8.797 30.205-2.14 12.632 2.817 24.598 13.262 32.017 9.712 6.898 15.138 15.356 15.138 27.58s-5.426 20.682-15.138 27.58c-10.446 7.419-15.402 19.385-13.262 32.017 1.988 11.746-.153 21.561-8.798 30.206-8.642 8.642-18.462 10.788-30.205 8.797-12.632-2.14-24.598 2.817-32.017 13.262-6.898 9.712-15.356 15.138-27.58 15.138s-20.682-5.426-27.58-15.138c-7.419-10.445-19.385-15.402-32.017-13.262-11.747 1.988-21.562-.153-30.206-8.798-8.642-8.642-10.788-18.462-8.797-30.205 2.14-12.632-2.817-24.598-13.262-32.017-9.712-6.898-15.138-15.356-15.138-27.58zm54.784 0c0 39.775 32.441 72.215 72.216 72.215s72.216-32.441 72.216-72.215-32.44-72.215-72.216-72.215-72.216 32.441-72.216 72.215zm40.341 31.289c4.039 6.997 13.545 8.248 19.257 2.535l51.563-51.564c4.489-4.488 4.489-11.833 0-16.322s-11.834-4.489-16.322 0l-41.572 41.573-10.251-17.755c-3.17-5.49-10.276-7.394-15.766-4.224-5.498 3.174-7.399 10.268-4.225 15.766l17.316 29.992zm-207.272 21.225c13.377 49.923 52.044 89.119 101.781 103.173-31.645-25.689-51.768-62.911-55.931-103.456-3.872-37.71 6.361-75.411 28.539-105.91l16.017 10.712c2.536 1.696 5.94.065 6.208-2.973l6.763-76.63c.244-2.767-2.302-4.921-4.99-4.223l-87.408 22.699c-3.347.869-4.093 5.274-1.218 7.196l21.797 14.577c-32.306 36.706-44.296 87.293-31.557 134.836zm446.737-134.835 21.797-14.577c2.875-1.922 2.129-6.327-1.218-7.196l-87.409-22.699c-2.688-.698-5.234 1.457-4.99 4.223l6.764 76.63c.268 3.038 3.672 4.669 6.208 2.973l16.018-10.712c22.178 30.499 32.411 68.2 28.539 105.91-4.164 40.545-24.287 77.768-55.931 103.456 49.737-14.054 88.404-53.25 101.781-103.173 12.739-47.543.749-98.131-31.557-134.836zm-103.822 305c-22.86 8.987-49.734 17.992-70.425 23.977-4.006 25.259-42.368 34.088-71.443 36.235-16.118 1.19-32.738.471-44.595-.042-3.729-.161-6.99-.302-9.123-.348-5.032-.099-9.031-4.258-8.933-9.29.099-5.032 4.258-9.031 9.29-8.933 2.974.063 6.043.196 9.552.348 11.312.49 27.17 1.175 42.523.042 13.825-1.021 52.683-3.098 51.183-23.402-.915-12.379-10.864-20.817-32.834-21.023-34.981-.327-66.436-3.105-101.654-6.805-49.158-3.418-87.956 34.454-119.474 68.921-3.589 3.925-3.879 9.708-.7 13.972l46.287 62.081c3.552 4.764 10.265 5.835 15.124 2.412 38.14-26.862 71.611-23.126 103.846-23.624 16.08-.249 34.345 2.874 62.059-9.587l148.07-67.347c11.612-5.684 24.854-13.198 30.373-17.632 8.435-20.363-8.904-39.7-59.125-19.956z" fill-rule="evenodd"/></svg>