<svg id="_x33_0" enable-background="new 0 0 58 58" height="512" viewBox="0 0 58 58" width="512" xmlns="http://www.w3.org/2000/svg"><g><path d="m33 51c-1.657 0-3-1.343-3-3s1.343-3 3-3h1.169c.094-.608.218-1.206.394-1.783-.657-1.309-1.998-2.217-3.563-2.217-2.518 0-4.889 1.186-6.4 3.2l-.6.8h-21c-1.105 0-2 .895-2 2v2c0 1.105.895 2 2 2h21l.6.8c1.511 2.014 3.882 3.2 6.4 3.2 1.94 0 3.556-1.382 3.921-3.215-.102-.258-.201-.519-.287-.785z"/><path d="m28 23v-6.405c-4.281-2.375-9.099-3.85-13.975-4.256-1.102-.092-2.133-.451-3.028-1.013l-.645.185c-2.563.732-4.352 3.104-4.352 5.769v5.72c0 3.72 1.861 7.008 4.695 9h.079c.52-1.143 1.344-2.095 2.351-2.788-.509-.591-.897-1.297-1.096-2.093l-.029-.119h10l-.03.119c-.236.942-.733 1.757-1.39 2.402.83.854 1.347 2.004 1.4 3.274 3.567-1.82 6.02-5.523 6.02-9.795zm-17 0c-1.105 0-2-.895-2-2s.895-2 2-2 2 .895 2 2-.895 2-2 2zm12 0c-1.105 0-2-.895-2-2s.895-2 2-2 2 .895 2 2-.895 2-2 2z"/><path d="m19.883 37.071c-.816.58-1.807.929-2.883.929h-2.454c.595 1.102 1.428 2.068 2.454 2.794 1.306-.923 2.299-2.235 2.883-3.723z"/><path d="m30 18v5c0 .338-.025.669-.051 1h1.051c1.654 0 3-1.346 3-3s-1.346-3-3-3z"/><path d="m43.514 48.297c-2.322-.979-4.141-2.91-4.989-5.297h-1.525c-.077 0-.15-.017-.225-.023-.505 1.278-.775 2.625-.775 4.023 0 2.292.706 4.42 1.909 6.184.885-2.281 2.946-3.873 5.356-4.143z"/><path d="m24.426 41.483c-.43-1.448-1.469-2.624-2.85-3.228-.785 1.748-2.053 3.264-3.652 4.331l-.621.414h5.697c.421-.561.904-1.063 1.426-1.517z"/><path d="m16.697 43-.621-.414c-1.599-1.067-2.868-2.583-3.652-4.331-1.61.704-2.762 2.183-3.017 3.969l-.111.776z"/><path d="m47 47c3.859 0 7-3.141 7-7v-4.559c0-.431-.274-.813-.684-.949l-.446-.148c-.513.41-1.163.656-1.87.656h-10c-.552 0-1 .448-1 1v4c0 3.859 3.141 7 7 7zm4-10c.552 0 1 .448 1 1s-.448 1-1 1-1-.448-1-1 .448-1 1-1zm-5 6h.764c.998 0 1.896-.555 2.342-1.447l1.789.895c-.789 1.573-2.372 2.552-4.131 2.552h-.764zm-3-6c.552 0 1 .448 1 1s-.448 1-1 1-1-.448-1-1 .448-1 1-1z"/><path d="m4 16v-4c0-5.514 4.486-10 10-10h6c5.514 0 10 4.486 10 10v4h1c.342 0 .677.035 1 .101v-4.101c0-6.617-5.383-12-12-12h-6c-6.617 0-12 5.383-12 12v4.101c.323-.066.658-.101 1-.101z"/><path d="m37 39c-.552 0-1 .448-1 1s.448 1 1 1h1.059c-.037-.329-.059-.662-.059-1v-1z"/><path d="m23.764 6.639c1.483.603 2.755 1.526 3.76 2.668-1.11-3.088-4.059-5.307-7.524-5.307h-6c-4.411 0-8 3.589-8 8v.039c.876-1.005 1.997-1.789 3.294-2.259-.581-.735-1.026-1.588-1.264-2.538l1.94-.484c.494 1.977 2.191 3.419 4.222 3.589 4.725.393 9.402 1.728 13.635 3.88-.542-2.562-2.309-4.717-4.816-5.735l-1.387-.565.754-1.852z"/><path d="m3 24h1.051c-.026-.331-.051-.662-.051-1v-5h-1c-1.654 0-3 1.346-3 3s1.346 3 3 3z"/><path d="m2.899 35.397.426 2.132c.286 1.432 1.554 2.471 3.014 2.471.332 0 .658-.053.971-.157l.931-.31c.312-.573.7-1.098 1.151-1.563-4.44-.269-8.101-3.441-9.108-7.644-.184.417-.284.876-.284 1.354 0 1.118.556 2.155 1.485 2.775z"/><path d="m34 17v.026c.001.001.002.002.003.002 0-.01-.003-.018-.003-.028z"/><path d="m50.582 5.456c-.472.051-.966-.054-1.404-.304-.466-.264-.824-.673-1.033-1.152h-2.289c-.21.479-.567.888-1.033 1.152-.438.25-.93.354-1.404.304l-1.169 2.092c.296.413.46.916.46 1.452s-.164 1.039-.46 1.452l1.169 2.092c.475-.048.966.055 1.404.304.466.265.823.673 1.033 1.152h2.289c.21-.479.567-.888 1.033-1.152.438-.249.933-.352 1.404-.304l1.169-2.092c-.296-.413-.46-.916-.46-1.452s.164-1.039.46-1.452zm-3.582 5.544c-1.105 0-2-.895-2-2s.895-2 2-2 2 .895 2 2-.895 2-2 2z"/><path d="m39.685 54.111-.277.829c1.134 1.085 2.498 1.926 4.012 2.45l1.457-5.099-1.26-1.26c-1.801.152-3.354 1.342-3.932 3.08z"/><path d="m57 43h-1.525c-.848 2.387-2.667 4.317-4.989 5.297l.248.744c2.41.269 4.471 1.861 5.357 4.142 1.203-1.763 1.909-3.892 1.909-6.183 0-1.398-.27-2.745-.775-4.023-.076.006-.148.023-.225.023z"/><path d="m55.67 22.576c-1.31.915-2.891 1.424-4.498 1.424h-4.7c-2.377 0-4.514 1.321-5.577 3.447l-.17.34-1.912.765c-1.709.684-2.813 2.315-2.812 4.156 0 .69.163 1.382.473 2l1.144 2.292h.382v-1c0-1.654 1.346-3 3-3h10c.552 0 1-.448 1-1s-.448-1-1-1h-.172c-.263 0-.521.106-.707.293l-.414.414-1.414-1.414.414-.414c.566-.566 1.32-.879 2.121-.879h.172c1.654 0 3 1.346 3 3 0 .203-.021.401-.059.593l.008.003c1.227.409 2.051 1.552 2.051 2.845v1.559h.382l.158-.316c.955-1.911 1.46-4.048 1.46-6.184s-.505-4.273-1.46-6.184z"/><path d="m50.384 51.03-1.26 1.26 1.457 5.099c1.514-.523 2.878-1.365 4.012-2.45l-.276-.829c-.58-1.737-2.133-2.927-3.933-3.08z"/><path d="m57 39h-1v1c0 .338-.022.671-.059 1h1.059c.552 0 1-.448 1-1s-.448-1-1-1z"/><path d="m57 0h-20c-.552 0-1 .448-1 1v16c0 .552.448 1 1 1h8.78l.947 3.788c.063.248.482.249.545-.001l.948-3.787h8.78c.552 0 1-.448 1-1v-16c0-.552-.448-1-1-1zm-3.488 9.408.836.498-2.913 5.212-.883-.526c-.16-.096-.298-.056-.387-.005-.068.039-.229.157-.229.413v1h-5.873v-1c0-.256-.16-.374-.229-.413-.089-.051-.227-.091-.387.005l-.883.526-2.913-5.212.836-.498c.2-.118.222-.325.222-.408s-.021-.29-.221-.408l-.836-.498 2.913-5.212.883.526c.16.095.298.056.387.005.068-.039.228-.157.228-.413v-1h5.873v1c0 .256.16.374.229.413.089.051.227.09.387-.005l.883-.526 2.913 5.212-.836.498c-.2.118-.221.325-.221.408s.021.29.221.408z"/><path d="m47 49c-.534 0-1.055-.056-1.564-.145l-.292.875 1.27 1.27h1.172l1.27-1.27-.292-.875c-.509.089-1.03.145-1.564.145z"/><path d="m46.755 53-1.39 4.865c.535.08 1.078.135 1.635.135s1.1-.055 1.635-.135l-1.39-4.865z"/><path d="m3 26c-.342 0-.677-.035-1-.101v2.101c0 4.411 3.589 8 8 8h7c1.654 0 3-1.346 3-3s-1.346-3-3-3c-2.226 0-4.157 1.508-4.697 3.668l-.084.332h-2.219c-3.309 0-6-2.691-6-6v-2z"/></g></svg>