<svg id="Layer_1" height="512" viewBox="0 0 512 512" width="512" xmlns="http://www.w3.org/2000/svg" data-name="Layer 1"><path d="m61.975 512-42.051-107.5 64.637-25.306 42.1 107.5zm167.238-158.263c-49.9-9.7-87.383-2.188-111.474 22.333a39.625 39.625 0 0 1 -13.658 9.211l-2.1.855 31.19 79.683 18.068-8.357a39.494 39.494 0 0 1 19.735-3.7c19.359 1.2 52.214 9.056 84.049 16.632 20.7 4.948 40.33 9.621 55.118 12.223a25.815 25.815 0 0 0 14.358-1.355c86.684-32.813 112.657-59.055 164.71-125.675 5.216-6.658 2.581-14.853-2.1-19.665-5.7-5.814-16.132-8.8-28.393.3-32 23.634-58.721 42.923-77.22 56.167 4.625 4.792 6.561 9.75 5.754 14.842-2.635 16.2-30.6 19.644-53.559 19.665h-.215c-19.628 0-61.786-4.081-87.06-6.528-6.883-.672-12.368-1.2-15.111-1.414a6.837 6.837 0 0 1 1.076-13.632c2.85.226 8.388.747 15.379 1.43 23.338 2.259 66.734 6.464 85.716 6.464h.161c31.189-.032 39.686-6.577 40.116-8.184.054-1.662-5.646-9.906-34.792-19.719-26.994-9.088-65.12-19.413-90.394-26.242-8.389-2.291-15.111-4.1-19.359-5.324zm114.431-13.737a39.162 39.162 0 0 1 -38.233-31.555h76.467a39.119 39.119 0 0 1 -38.234 31.555zm45.762-45.235h-91.523a21.367 21.367 0 0 1 -21.348-21.354v-13.461h134.273v13.459a21.413 21.413 0 0 1 -21.4 21.354zm-38.932-155.71h35.326a6.835 6.835 0 0 0 6.829-6.841 15 15 0 1 1 30.006 0 6.835 6.835 0 0 0 6.829 6.841h35.491v.419a121.024 121.024 0 0 1 -43.288 92.879 30.116 30.116 0 0 0 -9.464 13.917h-61.729v-25.742a28.693 28.693 0 0 0 0-55.721zm-6.83 38.609a6.842 6.842 0 0 1 -6.829-6.84v-31.769h-29.307a28.682 28.682 0 0 1 -55.71 0h-29.468v.419a121.024 121.024 0 0 0 43.288 92.879 30.109 30.109 0 0 1 9.464 13.917h61.733v-31.76a6.835 6.835 0 0 1 6.829-6.84 15 15 0 0 0 0-30.006zm-6.829-78.031v25.741h-35.276a6.854 6.854 0 0 0 -6.883 6.84 15 15 0 1 1 -30.006 0 6.842 6.842 0 0 0 -6.829-6.84h-34.684a121.538 121.538 0 0 1 113.678-107.021v25.559a28.693 28.693 0 0 0 0 55.721zm114.753 7.4a28.717 28.717 0 0 0 -55.764 0h-29.253v-31.771a6.842 6.842 0 0 0 -6.829-6.84 15 15 0 1 1 0-30.006 6.841 6.841 0 0 0 6.829-6.84v-31.576a121.375 121.375 0 0 1 113.679 107.032z" fill-rule="evenodd"/></svg>