<svg id="Layer_1" enable-background="new 0 0 512 512" viewBox="0 0 512 512" xmlns="http://www.w3.org/2000/svg"><path d="m419.847 423.688c17.792 5.407 38.868-9.906 39.223-28.497.149-7.822 4.925-14.396 12.318-16.955 17.572-6.083 25.622-30.859 14.982-46.109-4.477-6.416-4.478-14.541-.001-20.957 10.641-15.25 2.591-40.026-14.981-46.11-7.392-2.56-12.169-9.133-12.319-16.954-.354-18.592-21.431-33.904-39.223-28.498-7.485 2.275-15.213-.235-19.931-6.475-11.214-14.832-37.266-14.833-48.482-.001-4.718 6.24-12.446 8.752-19.931 6.477-17.792-5.407-38.868 9.905-39.224 28.496-.149 7.822-4.925 14.396-12.317 16.955-17.572 6.083-25.623 30.859-14.982 46.109 4.476 6.416 4.477 14.541 0 20.957-10.641 15.25-2.591 40.026 14.981 46.11 7.393 2.559 12.169 9.133 12.318 16.954.355 18.591 21.431 33.904 39.223 28.498 7.485-2.275 15.213.235 19.932 6.475 11.215 14.832 37.267 14.833 48.483 0 4.719-6.24 12.446-8.751 19.931-6.475zm-44.172-25.463c-42.292 0-76.577-34.285-76.577-76.577s34.285-76.577 76.577-76.577 76.577 34.285 76.577 76.577-34.285 76.577-76.577 76.577zm-124.431-24.543c-2.892.739-5.814 1.404-8.764 1.992v33.508h-66.78v-33.508c-22.11-4.408-42.67-13.107-60.78-25.192l-23.705 23.705-47.22-47.221 23.704-23.705c-12.086-18.108-20.782-38.671-25.191-60.78h-33.508v-66.78h33.508c4.407-22.111 13.106-42.671 25.191-60.781l-23.704-23.705 47.222-47.22 23.702 23.702c18.109-12.087 38.672-20.782 60.781-25.192v-33.505h66.78v33.505c22.111 4.408 42.672 13.107 60.783 25.192l23.703-23.703 47.22 47.221-23.703 23.702c12.087 18.109 20.783 38.673 25.192 60.783h33.505v23.732c-18.827-19.153-53.984-17.804-70.509 4.048-.67.886-1.454 1.142-2.517.819-2.364-.718-4.752-1.208-7.144-1.493-3.287-63.74-56.052-113.8-119.922-113.8-66.32 0-120.084 53.765-120.084 120.084s53.765 120.084 120.084 120.084c15.222 0 29.781-2.834 43.182-8.001.158.595.02 1.173-.415 1.796-10.551 15.128-9.654 35.412-.611 50.713zm170.593-65.088-25.622 21.673 7.99 32.594-28.53-17.67-28.529 17.67 7.989-32.594-25.622-21.673 33.467-2.473 12.694-31.065 12.695 31.065zm77.555 157.427-45.025-8.074-15.52 43.029c-.884 2.452-4.223 2.75-5.527.492l-30.28-52.447c3.622-2.501 6.888-5.57 9.638-9.207.67-.886 1.454-1.141 2.517-.818 23.344 7.095 49.081-7.653 57.244-29.725l30.143 52.209c1.303 2.257-.624 5-3.19 4.541zm-242.435-204.19c-10.716 11.851-15.3 29.24-11.35 44.756-11.363 4.257-23.667 6.587-36.517 6.587-25.236 0-48.375-8.981-66.393-23.921 10.346-27.624 36.873-46.123 66.395-46.123 15.854 0 30.511 5.25 42.314 14.089 1.928 1.445 3.781 2.984 5.551 4.612zm4.012-17.361c-6.446-4.828-13.573-8.785-21.199-11.694 12.569-9.593 19.938-24.399 19.938-40.261 0-27.953-22.663-50.616-50.616-50.616s-50.616 22.663-50.616 50.616c0 15.868 7.375 30.682 19.953 40.273-21.082 8.039-38.385 24.026-47.985 44.484-15.847-18.263-25.438-42.102-25.438-68.181 0-57.486 46.599-104.084 104.084-104.084 55.453 0 101.225 43.522 103.955 98.871-19.75 4.951-36.357 22.751-36.763 43.921-.021 1.114-.501 1.777-1.554 2.142-1.712.593-3.364 1.291-4.953 2.085-2.763-2.708-5.705-5.233-8.806-7.556zm87.341 204.551-30.28 52.447c-1.303 2.258-4.642 1.96-5.527-.491l-15.52-43.03-45.024 8.074c-2.566.46-4.493-2.283-3.189-4.541l30.143-52.208c8.163 22.071 33.898 36.818 57.242 29.724 1.062-.323 1.847-.069 2.517.817 2.75 3.637 6.016 6.706 9.638 9.208zm-139.218-221.891c-19.12 0-34.616-15.496-34.616-34.616 0-19.119 15.496-34.616 34.616-34.616s34.616 15.497 34.616 34.616c0 19.12-15.496 34.616-34.616 34.616z"/></svg>