<svg id="a" height="512" viewBox="0 0 64 64" width="512" xmlns="http://www.w3.org/2000/svg"><path d="m12.65997 26.51001c-2.07996-4.56-3-9.55005-2.65997-14.52002 6.88324 3.16193 18.21771-.42853 21.92999-7.04999 3.7226 6.62097 15.04291 10.21307 21.92999 7.04999.34003 4.95001-.57001 9.92999-2.64996 14.47998.63995.20001 1.25995.46002 1.84998.76001 2.40002-5.31 3.34003-11.15997 2.65002-16.92999-.06696-.70746-.91937-1.12042-1.51001-.72998-2.96002 1.82001-7.79004 2.08997-12 .65997-4.54004-1.52997-7.58002-4.03998-9.28003-7.65002-.15997-.35999-.51001-.57996-.89996-.57996-.44611-.03955-.89697.14874-1.08002.57996-1.70001 3.61005-4.72998 6.12006-9.28003 7.65002-4.20996 1.42999-9.02997 1.16003-12-.65997-.58441-.39069-1.44922.02277-1.50995.72998-.69 5.79999.25 11.66998 2.67999 16.98999.57996-.31 1.19-.57001 1.82996-.77997z"/><path d="m37.91998 41.39001c-1.90997 1.12-3.90997 2-5.98999 2.59998-2.03998-.59003-4.01001-1.44-5.88-2.53003-.26996.60004-.59998 1.19-.97998 1.74005 2.20898 1.20575 4.51147 2.37604 6.94995 2.80011 2.40234-.55756 4.68579-1.61542 6.87006-2.86011-.38-.56006-.70001-1.14001-.97003-1.75z"/><path d="m48 26c.40002 0 .79999.01996 1.19.07001 1.51001-3.17004 2.41998-6.60004 2.66998-10.08002.05859-.61462-.52087-1.1626-1.14001-1.06-3.12.46002-6.67999.14996-9.79999-.91003-3.37-1.13995-6.14996-2.79999-8.27997-4.94995-.38-.38-1.04004-.38-1.42004 0-2.12994 2.14996-4.90997 3.81-8.26996 4.94995-3.13 1.06-6.69 1.37006-9.81.91003-.61469-.10272-1.20325.4455-1.14001 1.06.25 3.48999 1.15997 6.90997 2.67999 10.08997 7.42877-1.03223 13.88202 6.1886 12.02002 13.45001 5.07233 2.91974 5.5448 2.82343 10.58002-.07996-1.63861-6.75092 3.76233-13.54126 10.71997-13.45001zm-16.08594 4.91406c-.78125.78125-2.04688.78125-2.82812 0l-5.5-5.5c-1.82654-1.88782.93719-4.65686 2.82819-2.82806-.00006-.00006 4.08588 4.08588 4.08588 4.08588l8.08594-8.08594c1.88873-1.82684 4.65643.93762 2.82806 2.82819.00006-.00006-9.49994 9.49994-9.49994 9.49994z"/><path d="m22.21002 45.98999c-.81-.34003-1.63-.59003-2.48004-.75 8.67603-4.10901 5.97369-17.09436-3.7301-17.23999-9.7049.1463-12.40491 13.13269-3.72986 17.19-5.84003 1.17999-10.27002 6.34998-10.27002 12.54999v3.26001c0 .54999.45001 1 1 1h26c.54999 0 1-.45001 1-1v-3.26001c.04938-5.02863-3.14728-9.84674-7.78998-11.75zm-13.21002-8.98999c.35114-9.27271 13.64941-9.27216 14 .00006.0058 3.89142-3.19818 7.02148-7 6.99994-3.8017.02161-7.00592-3.10852-7-7zm8.72998 10.46997c0 .54999-.44 1-1 1h-1.45996c-.56 0-1-.45001-1-1v-1.64001c1.1153.22516 2.34467.22516 3.45996 0z"/><path d="m51.72998 45.23999c8.67603-4.10901 5.97369-17.09436-3.7301-17.23999-9.7049.1463-12.40491 13.13269-3.72986 17.19-5.83783 1.08478-10.35327 6.62775-10.26996 12.55005-.00006-.00006-.00006 3.25995-.00006 3.25995 0 .54999.45001 1 1 1h26c.54999 0 1-.45001 1-1v-3.26001c0-6.20001-4.42999-11.37-10.27002-12.5zm-10.72998-8.23999c0-3.85999 3.14001-7 7-7 7.29694.06354 9.62189 9.75879 3.29987 13.17999-4.44031 2.49902-10.41675-.95782-10.29987-6.17999zm8.72998 8.82996v1.64001c0 .54999-.44 1-1 1h-1.45996c-.56 0-1-.45001-1-1v-1.64001c1.1153.22516 2.34467.22516 3.45996 0zm10.27002 14.17004h-24v-2.26001c-.0119-2.90271 1.21881-5.76129 3.32001-7.77002 3.6759 6.65552 13.68103 6.66241 17.35999.01001 2.03998 1.95001 3.32001 4.71002 3.32001 7.76001v2.26001z"/></svg>